<svg xmlns="http://www.w3.org/2000/svg" width="1080" height="835" viewBox="0 0 1080 835">
<rect width="1080" height="835" fill="#fffdf9"/>
<text x="36" y="48" font-family="sans-serif" font-size="24" font-weight="bold">EXP7 Fourier peaks against matched nulls</text>
<text x="36" y="77" font-family="sans-serif" font-size="16">Cell = observed maximum / 95th percentile of 512 same-size null maxima</text>
<text x="311" y="123" text-anchor="middle" font-family="sans-serif" font-size="17" font-weight="bold">p=179</text>
<text x="311" y="144" text-anchor="middle" font-family="sans-serif" font-size="14">n=191</text>
<text x="496" y="123" text-anchor="middle" font-family="sans-serif" font-size="17" font-weight="bold">p=739</text>
<text x="496" y="144" text-anchor="middle" font-family="sans-serif" font-size="14">n=719</text>
<text x="681" y="123" text-anchor="middle" font-family="sans-serif" font-size="17" font-weight="bold">p=2749</text>
<text x="681" y="144" text-anchor="middle" font-family="sans-serif" font-size="14">n=2749</text>
<text x="866" y="123" text-anchor="middle" font-family="sans-serif" font-size="17" font-weight="bold">p=10177</text>
<text x="866" y="144" text-anchor="middle" font-family="sans-serif" font-size="14">n=10321</text>
<text x="40" y="204" font-family="sans-serif" font-size="16">B-smooth x</text>
<rect x="228" y="173" width="166" height="52" rx="6" fill="#c8e4eb" stroke="#536b75"/>
<text x="311" y="206" text-anchor="middle" font-family="sans-serif" font-size="19" font-weight="bold">0.95×</text>
<rect x="413" y="173" width="166" height="52" rx="6" fill="#c8e4eb" stroke="#536b75"/>
<text x="496" y="206" text-anchor="middle" font-family="sans-serif" font-size="19" font-weight="bold">0.82×</text>
<rect x="598" y="173" width="166" height="52" rx="6" fill="#c8e4eb" stroke="#536b75"/>
<text x="681" y="206" text-anchor="middle" font-family="sans-serif" font-size="19" font-weight="bold">0.83×</text>
<rect x="783" y="173" width="166" height="52" rx="6" fill="#c8e4eb" stroke="#536b75"/>
<text x="866" y="206" text-anchor="middle" font-family="sans-serif" font-size="19" font-weight="bold">0.87×</text>
<text x="40" y="267" font-family="sans-serif" font-size="16">CF quotients ≤16</text>
<rect x="228" y="236" width="166" height="52" rx="6" fill="#c8e4eb" stroke="#536b75"/>
<text x="311" y="269" text-anchor="middle" font-family="sans-serif" font-size="19" font-weight="bold">0.85×</text>
<rect x="413" y="236" width="166" height="52" rx="6" fill="#c8e4eb" stroke="#536b75"/>
<text x="496" y="269" text-anchor="middle" font-family="sans-serif" font-size="19" font-weight="bold">0.89×</text>
<rect x="598" y="236" width="166" height="52" rx="6" fill="#c8e4eb" stroke="#536b75"/>
<text x="681" y="269" text-anchor="middle" font-family="sans-serif" font-size="19" font-weight="bold">0.77×</text>
<rect x="783" y="236" width="166" height="52" rx="6" fill="#c8e4eb" stroke="#536b75"/>
<text x="866" y="269" text-anchor="middle" font-family="sans-serif" font-size="19" font-weight="bold">0.78×</text>
<text x="40" y="330" font-family="sans-serif" font-size="16">Cantor digits</text>
<rect x="228" y="299" width="166" height="52" rx="6" fill="#c8e4eb" stroke="#536b75"/>
<text x="311" y="332" text-anchor="middle" font-family="sans-serif" font-size="19" font-weight="bold">0.80×</text>
<rect x="413" y="299" width="166" height="52" rx="6" fill="#c8e4eb" stroke="#536b75"/>
<text x="496" y="332" text-anchor="middle" font-family="sans-serif" font-size="19" font-weight="bold">0.78×</text>
<rect x="598" y="299" width="166" height="52" rx="6" fill="#c8e4eb" stroke="#536b75"/>
<text x="681" y="332" text-anchor="middle" font-family="sans-serif" font-size="19" font-weight="bold">0.89×</text>
<rect x="783" y="299" width="166" height="52" rx="6" fill="#c8e4eb" stroke="#536b75"/>
<text x="866" y="332" text-anchor="middle" font-family="sans-serif" font-size="19" font-weight="bold">0.96×</text>
<text x="40" y="393" font-family="sans-serif" font-size="16">Hamming weight</text>
<rect x="228" y="362" width="166" height="52" rx="6" fill="#c8e4eb" stroke="#536b75"/>
<text x="311" y="395" text-anchor="middle" font-family="sans-serif" font-size="19" font-weight="bold">0.98×</text>
<rect x="413" y="362" width="166" height="52" rx="6" fill="#c8e4eb" stroke="#536b75"/>
<text x="496" y="395" text-anchor="middle" font-family="sans-serif" font-size="19" font-weight="bold">0.89×</text>
<rect x="598" y="362" width="166" height="52" rx="6" fill="#c8e4eb" stroke="#536b75"/>
<text x="681" y="395" text-anchor="middle" font-family="sans-serif" font-size="19" font-weight="bold">0.90×</text>
<rect x="783" y="362" width="166" height="52" rx="6" fill="#c8e4eb" stroke="#536b75"/>
<text x="866" y="395" text-anchor="middle" font-family="sans-serif" font-size="19" font-weight="bold">0.85×</text>
<text x="40" y="456" font-family="sans-serif" font-size="16">Farey height</text>
<rect x="228" y="425" width="166" height="52" rx="6" fill="#c8e4eb" stroke="#536b75"/>
<text x="311" y="458" text-anchor="middle" font-family="sans-serif" font-size="19" font-weight="bold">0.77×</text>
<rect x="413" y="425" width="166" height="52" rx="6" fill="#c8e4eb" stroke="#536b75"/>
<text x="496" y="458" text-anchor="middle" font-family="sans-serif" font-size="19" font-weight="bold">0.88×</text>
<rect x="598" y="425" width="166" height="52" rx="6" fill="#c8e4eb" stroke="#536b75"/>
<text x="681" y="458" text-anchor="middle" font-family="sans-serif" font-size="19" font-weight="bold">0.77×</text>
<rect x="783" y="425" width="166" height="52" rx="6" fill="#c8e4eb" stroke="#536b75"/>
<text x="866" y="458" text-anchor="middle" font-family="sans-serif" font-size="19" font-weight="bold">0.78×</text>
<text x="40" y="519" font-family="sans-serif" font-size="16">Legendre +++</text>
<rect x="228" y="488" width="166" height="52" rx="6" fill="#c8e4eb" stroke="#536b75"/>
<text x="311" y="521" text-anchor="middle" font-family="sans-serif" font-size="19" font-weight="bold">0.88×</text>
<rect x="413" y="488" width="166" height="52" rx="6" fill="#f6dfa6" stroke="#536b75"/>
<text x="496" y="521" text-anchor="middle" font-family="sans-serif" font-size="19" font-weight="bold">1.06×</text>
<rect x="598" y="488" width="166" height="52" rx="6" fill="#c8e4eb" stroke="#536b75"/>
<text x="681" y="521" text-anchor="middle" font-family="sans-serif" font-size="19" font-weight="bold">0.86×</text>
<rect x="783" y="488" width="166" height="52" rx="6" fill="#c8e4eb" stroke="#536b75"/>
<text x="866" y="521" text-anchor="middle" font-family="sans-serif" font-size="19" font-weight="bold">0.81×</text>
<text x="40" y="582" font-family="sans-serif" font-size="16">SHA(x) control</text>
<rect x="228" y="551" width="166" height="52" rx="6" fill="#c8e4eb" stroke="#536b75"/>
<text x="311" y="584" text-anchor="middle" font-family="sans-serif" font-size="19" font-weight="bold">0.74×</text>
<rect x="413" y="551" width="166" height="52" rx="6" fill="#c8e4eb" stroke="#536b75"/>
<text x="496" y="584" text-anchor="middle" font-family="sans-serif" font-size="19" font-weight="bold">0.68×</text>
<rect x="598" y="551" width="166" height="52" rx="6" fill="#c8e4eb" stroke="#536b75"/>
<text x="681" y="584" text-anchor="middle" font-family="sans-serif" font-size="19" font-weight="bold">0.86×</text>
<rect x="783" y="551" width="166" height="52" rx="6" fill="#c8e4eb" stroke="#536b75"/>
<text x="866" y="584" text-anchor="middle" font-family="sans-serif" font-size="19" font-weight="bold">0.79×</text>
<text x="40" y="645" font-family="sans-serif" font-size="16">Random-pair control</text>
<rect x="228" y="614" width="166" height="52" rx="6" fill="#c8e4eb" stroke="#536b75"/>
<text x="311" y="647" text-anchor="middle" font-family="sans-serif" font-size="19" font-weight="bold">0.94×</text>
<rect x="413" y="614" width="166" height="52" rx="6" fill="#c8e4eb" stroke="#536b75"/>
<text x="496" y="647" text-anchor="middle" font-family="sans-serif" font-size="19" font-weight="bold">0.89×</text>
<rect x="598" y="614" width="166" height="52" rx="6" fill="#c8e4eb" stroke="#536b75"/>
<text x="681" y="647" text-anchor="middle" font-family="sans-serif" font-size="19" font-weight="bold">0.98×</text>
<rect x="783" y="614" width="166" height="52" rx="6" fill="#c8e4eb" stroke="#536b75"/>
<text x="866" y="647" text-anchor="middle" font-family="sans-serif" font-size="19" font-weight="bold">0.87×</text>
<text x="40" y="708" font-family="sans-serif" font-size="16">Log-interval control</text>
<rect x="228" y="677" width="166" height="52" rx="6" fill="#ee9a82" stroke="#536b75"/>
<text x="311" y="710" text-anchor="middle" font-family="sans-serif" font-size="19" font-weight="bold">2.58×</text>
<rect x="413" y="677" width="166" height="52" rx="6" fill="#ee9a82" stroke="#536b75"/>
<text x="496" y="710" text-anchor="middle" font-family="sans-serif" font-size="19" font-weight="bold">4.70×</text>
<rect x="598" y="677" width="166" height="52" rx="6" fill="#ee9a82" stroke="#536b75"/>
<text x="681" y="710" text-anchor="middle" font-family="sans-serif" font-size="19" font-weight="bold">8.44×</text>
<rect x="783" y="677" width="166" height="52" rx="6" fill="#ee9a82" stroke="#536b75"/>
<text x="866" y="710" text-anchor="middle" font-family="sans-serif" font-size="19" font-weight="bold">15.43×</text>
<rect x="40" y="759" width="20" height="20" fill="#c8e4eb" stroke="#536b75"/><text x="68" y="775" font-family="sans-serif" font-size="14">≤ null 95th percentile</text>
<rect x="320" y="759" width="20" height="20" fill="#f6dfa6" stroke="#536b75"/><text x="348" y="775" font-family="sans-serif" font-size="14">&gt; null 95th percentile</text>
<rect x="627" y="759" width="20" height="20" fill="#ee9a82" stroke="#536b75"/><text x="655" y="775" font-family="sans-serif" font-size="14">&gt; 2× null 95th percentile</text>
<text x="40" y="812" font-family="sans-serif" font-size="13">24 candidate cells; threshold p ≤ 0.05/24. A colored cell alone is not a lead.</text>
</svg>
