<?xml version="1.0" encoding="UTF-8" standalone="no"?>
<!DOCTYPE svg PUBLIC "-//W3C//DTD SVG 1.1//EN"
 "http://www.w3.org/Graphics/SVG/1.1/DTD/svg11.dtd">
<!-- Generated by graphviz version 2.42.4 (0)
 -->
<!-- Title: p192_weak_curve_study Pages: 1 -->
<svg width="951pt" height="830pt"
 viewBox="0.00 0.00 950.50 830.00" xmlns="http://www.w3.org/2000/svg" xmlns:xlink="http://www.w3.org/1999/xlink">
<g id="graph0" class="graph" transform="scale(1 1) rotate(0) translate(18 812)">
<title>p192_weak_curve_study</title>
<polygon fill="white" stroke="transparent" points="-18,18 -18,-812 932.5,-812 932.5,18 -18,18"/>
<text text-anchor="middle" x="457.25" y="-780.4" font-family="DejaVu Sans" font-size="12.00">P&#45;192 weak&#45;object study: two mathematically distinct lanes (independent review complete; overall BREAKS)</text>
<g id="clust1" class="cluster">
<title>cluster_valid</title>
<path fill="white" stroke="#60a5fa" stroke-width="1.5" d="M20,-209C20,-209 404,-209 404,-209 410,-209 416,-215 416,-221 416,-221 416,-637 416,-637 416,-643 410,-649 404,-649 404,-649 20,-649 20,-649 14,-649 8,-643 8,-637 8,-637 8,-221 8,-221 8,-215 14,-209 20,-209"/>
<text text-anchor="middle" x="212" y="-635.4" font-family="DejaVu Sans" font-size="12.00">Valid CM / isogeny&#45;class lane</text>
</g>
<g id="clust2" class="cluster">
<title>cluster_singular</title>
<path fill="white" stroke="#c084fc" stroke-width="1.5" d="M444,-8C444,-8 864,-8 864,-8 870,-8 876,-14 876,-20 876,-20 876,-642 876,-642 876,-648 870,-654 864,-654 864,-654 444,-654 444,-654 438,-654 432,-648 432,-642 432,-642 432,-20 432,-20 432,-14 438,-8 444,-8"/>
<text text-anchor="middle" x="654" y="-640.4" font-family="DejaVu Sans" font-size="12.00">Singular implementation&#45;validation lane (not an isogeny&#45;class member)</text>
</g>
<!-- p192 -->
<g id="node1" class="node">
<title>p192</title>
<polygon fill="#dbeafe" stroke="#1d4ed8" points="603.5,-768 312.5,-768 308.5,-764 308.5,-706 599.5,-706 603.5,-710 603.5,-768"/>
<polyline fill="none" stroke="#1d4ed8" points="599.5,-764 308.5,-764 "/>
<polyline fill="none" stroke="#1d4ed8" points="599.5,-764 599.5,-706 "/>
<polyline fill="none" stroke="#1d4ed8" points="599.5,-764 603.5,-768 "/>
<text text-anchor="middle" x="456" y="-754.8" font-family="DejaVu Sans" font-size="9.00">VALID ELLIPTIC CURVE</text>
<text text-anchor="middle" x="456" y="-744.8" font-family="DejaVu Sans" font-size="9.00">P&#45;192</text>
<text text-anchor="middle" x="456" y="-734.8" font-family="DejaVu Sans" font-size="9.00">icv1&#45;fp192&#45;t31607402316713927207482677199&#45;52e4af59</text>
<text text-anchor="middle" x="456" y="-724.8" font-family="DejaVu Sans" font-size="9.00">EC1P192Cp192h5531c4a08bdb</text>
<text text-anchor="middle" x="456" y="-714.8" font-family="DejaVu Sans" font-size="9.00">UID sha256:5531c4a0…2f646</text>
</g>
<!-- frobenius -->
<g id="node2" class="node">
<title>frobenius</title>
<path fill="#eff6ff" stroke="#2563eb" d="M384.5,-620C384.5,-620 267.5,-620 267.5,-620 261.5,-620 255.5,-614 255.5,-608 255.5,-608 255.5,-580 255.5,-580 255.5,-574 261.5,-568 267.5,-568 267.5,-568 384.5,-568 384.5,-568 390.5,-568 396.5,-574 396.5,-580 396.5,-580 396.5,-608 396.5,-608 396.5,-614 390.5,-620 384.5,-620"/>
<text text-anchor="middle" x="326" y="-606.8" font-family="DejaVu Sans" font-size="9.00">[VALIDATED SUBCLAIM]</text>
<text text-anchor="middle" x="326" y="-596.8" font-family="DejaVu Sans" font-size="9.00">Order / CM facts reproduce</text>
<text text-anchor="middle" x="326" y="-586.8" font-family="DejaVu Sans" font-size="9.00">D = t² &#45; 4p</text>
<text text-anchor="middle" x="326" y="-576.8" font-family="DejaVu Sans" font-size="9.00">= &#45;5·11·31·C</text>
</g>
<!-- p192&#45;&gt;frobenius -->
<g id="edge10" class="edge">
<title>p192&#45;&gt;frobenius</title>
<path fill="none" stroke="#2563eb" stroke-width="1.8" d="M428.11,-705.75C406.19,-681.98 375.81,-649.02 353.89,-625.25"/>
<polygon fill="#2563eb" stroke="#2563eb" stroke-width="1.8" points="355.62,-623.51 349.07,-620.02 352.01,-626.83 355.62,-623.51"/>
<text text-anchor="middle" x="438.5" y="-669.1" font-family="DejaVu Sans" font-size="8.00">t, p; valid CM lane</text>
</g>
<!-- singular -->
<g id="node6" class="node">
<title>singular</title>
<path fill="#f3e8ff" stroke="#7e22ce" d="M657,-625C657,-625 461,-625 461,-625 455,-625 449,-619 449,-613 449,-613 449,-575 449,-575 449,-569 455,-563 461,-563 461,-563 657,-563 657,-563 663,-563 669,-569 669,-575 669,-575 669,-613 669,-613 669,-619 663,-625 657,-625"/>
<text text-anchor="middle" x="559" y="-611.8" font-family="DejaVu Sans" font-size="9.00">[DERIVED]</text>
<text text-anchor="middle" x="559" y="-601.8" font-family="DejaVu Sans" font-size="9.00">Singular nodal cubic S</text>
<text text-anchor="middle" x="559" y="-591.8" font-family="DejaVu Sans" font-size="9.00">y² = x³ &#45; 3x &#45; 2 = (x+1)²(x&#45;2)</text>
<text text-anchor="middle" x="559" y="-581.8" font-family="DejaVu Sans" font-size="9.00">node (&#45;1,0); Δ=0</text>
<text text-anchor="middle" x="559" y="-571.8" font-family="DejaVu Sans" font-size="9.00">singular&#45;model/v1 sha256:30512948…72b3</text>
</g>
<!-- p192&#45;&gt;singular -->
<g id="edge11" class="edge">
<title>p192&#45;&gt;singular</title>
<path fill="none" stroke="#dc2626" stroke-width="2" stroke-dasharray="5,2" d="M478.1,-705.75C494.12,-683.82 515.85,-654.07 532.75,-630.93"/>
<polygon fill="#dc2626" stroke="#dc2626" stroke-width="2" points="534.79,-632.3 536.94,-625.2 530.83,-629.41 534.79,-632.3"/>
<text text-anchor="middle" x="567" y="-673.6" font-family="DejaVu Sans" font-size="8.00" fill="#b91c1c">same field and a=&#45;3 only</text>
<text text-anchor="middle" x="567" y="-664.6" font-family="DejaVu Sans" font-size="8.00" fill="#b91c1c">NOT an isogeny; S is singular</text>
</g>
<!-- census -->
<g id="node3" class="node">
<title>census</title>
<path fill="#eff6ff" stroke="#2563eb" d="M369.5,-507C369.5,-507 130.5,-507 130.5,-507 124.5,-507 118.5,-501 118.5,-495 118.5,-495 118.5,-467 118.5,-467 118.5,-461 124.5,-455 130.5,-455 130.5,-455 369.5,-455 369.5,-455 375.5,-455 381.5,-461 381.5,-467 381.5,-467 381.5,-495 381.5,-495 381.5,-501 375.5,-507 369.5,-507"/>
<text text-anchor="middle" x="250" y="-493.8" font-family="DejaVu Sans" font-size="9.00">[PARTIALLY VALIDATED]</text>
<text text-anchor="middle" x="250" y="-483.8" font-family="DejaVu Sans" font-size="9.00">Counts reproduce; 103 emitted scalar relations replay</text>
<text text-anchor="middle" x="250" y="-473.8" font-family="DejaVu Sans" font-size="9.00">ℓ ≤ 113; ∏ℓ^|eℓ| ≤ 2^48</text>
<text text-anchor="middle" x="250" y="-463.8" font-family="DejaVu Sans" font-size="9.00">set identity INCONCLUSIVE: digest bytes not frozen</text>
</g>
<!-- frobenius&#45;&gt;census -->
<g id="edge1" class="edge">
<title>frobenius&#45;&gt;census</title>
<path fill="none" stroke="#2563eb" stroke-width="1.6" d="M308.75,-567.81C297.68,-551.63 283.21,-530.5 271.4,-513.25"/>
<polygon fill="#2563eb" stroke="#2563eb" stroke-width="1.6" points="273.15,-511.48 267.18,-507.09 269.11,-514.25 273.15,-511.48"/>
<text text-anchor="middle" x="352" y="-535.6" font-family="DejaVu Sans" font-size="8.00">certified ideal&#45;class arithmetic</text>
</g>
<!-- map_gate -->
<g id="node4" class="node">
<title>map_gate</title>
<path fill="#fef3c7" stroke="#b45309" d="M200.27,-396.49C200.27,-396.49 27.73,-359.51 27.73,-359.51 21.87,-358.26 21.87,-355.74 27.73,-354.49 27.73,-354.49 200.27,-317.51 200.27,-317.51 206.13,-316.26 217.87,-316.26 223.73,-317.51 223.73,-317.51 396.27,-354.49 396.27,-354.49 402.13,-355.74 402.13,-358.26 396.27,-359.51 396.27,-359.51 223.73,-396.49 223.73,-396.49 217.87,-397.74 206.13,-397.74 200.27,-396.49"/>
<text text-anchor="middle" x="212" y="-364.8" font-family="DejaVu Sans" font-size="9.00">OPEN: oriented kernels + explicit maps</text>
<text text-anchor="middle" x="212" y="-354.8" font-family="DejaVu Sans" font-size="9.00">+ subgroup transport + replay</text>
<text text-anchor="middle" x="212" y="-344.8" font-family="DejaVu Sans" font-size="9.00">+ HOT/COLD and whole&#45;attack cost</text>
</g>
<!-- census&#45;&gt;map_gate -->
<g id="edge2" class="edge">
<title>census&#45;&gt;map_gate</title>
<path fill="none" stroke="#2563eb" stroke-width="1.6" d="M242.13,-454.72C237.52,-439.93 231.57,-420.82 226.17,-403.5"/>
<polygon fill="#2563eb" stroke="#2563eb" stroke-width="1.6" points="228.48,-402.66 224.06,-396.71 223.8,-404.12 228.48,-402.66"/>
<text text-anchor="middle" x="271" y="-422.6" font-family="DejaVu Sans" font-size="8.00">candidate relation</text>
</g>
<!-- valid_verdict -->
<g id="node5" class="node">
<title>valid_verdict</title>
<path fill="#dcfce7" stroke="#15803d" d="M307,-259C307,-259 117,-259 117,-259 111,-259 105,-253 105,-247 105,-247 105,-229 105,-229 105,-223 111,-217 117,-217 117,-217 307,-217 307,-217 313,-217 319,-223 319,-229 319,-229 319,-247 319,-247 319,-253 313,-259 307,-259"/>
<text text-anchor="middle" x="212" y="-245.8" font-family="DejaVu Sans" font-size="9.00">CM result: INDETERMINATE</text>
<text text-anchor="middle" x="212" y="-235.8" font-family="DejaVu Sans" font-size="9.00">No P&#45;192 weakness or speedup established</text>
<text text-anchor="middle" x="212" y="-225.8" font-family="DejaVu Sans" font-size="9.00">Complete&#45;set negative not licensed</text>
</g>
<!-- map_gate&#45;&gt;valid_verdict -->
<g id="edge3" class="edge">
<title>map_gate&#45;&gt;valid_verdict</title>
<path fill="none" stroke="#15803d" stroke-width="1.6" d="M212,-314.75C212,-298.73 212,-280.81 212,-266.42"/>
<polygon fill="#15803d" stroke="#15803d" stroke-width="1.6" points="214.45,-266.25 212,-259.25 209.55,-266.25 214.45,-266.25"/>
<text text-anchor="middle" x="241" y="-287.6" font-family="DejaVu Sans" font-size="8.00">all gates pass</text>
</g>
<!-- parameter -->
<g id="node7" class="node">
<title>parameter</title>
<path fill="#f3e8ff" stroke="#7e22ce" d="M631.5,-512C631.5,-512 498.5,-512 498.5,-512 492.5,-512 486.5,-506 486.5,-500 486.5,-500 486.5,-462 486.5,-462 486.5,-456 492.5,-450 498.5,-450 498.5,-450 631.5,-450 631.5,-450 637.5,-450 643.5,-456 643.5,-462 643.5,-462 643.5,-500 643.5,-500 643.5,-506 637.5,-512 631.5,-512"/>
<text text-anchor="middle" x="565" y="-498.8" font-family="DejaVu Sans" font-size="9.00">[DERIVED]</text>
<text text-anchor="middle" x="565" y="-488.8" font-family="DejaVu Sans" font-size="9.00">Smooth&#45;locus torus parameter</text>
<text text-anchor="middle" x="565" y="-478.8" font-family="DejaVu Sans" font-size="9.00">t = y/(x+1)</text>
<text text-anchor="middle" x="565" y="-468.8" font-family="DejaVu Sans" font-size="9.00">P(t)=(t²+2, t(t²+3))</text>
<text text-anchor="middle" x="565" y="-458.8" font-family="DejaVu Sans" font-size="9.00">N=p+1; R=P(8)=(66,536)</text>
</g>
<!-- singular&#45;&gt;parameter -->
<g id="edge4" class="edge">
<title>singular&#45;&gt;parameter</title>
<path fill="none" stroke="#7e22ce" stroke-width="1.6" d="M560.62,-562.96C561.35,-549.51 562.22,-533.51 562.98,-519.31"/>
<polygon fill="#7e22ce" stroke="#7e22ce" stroke-width="1.6" points="565.44,-519.18 563.38,-512.06 560.55,-518.92 565.44,-519.18"/>
<text text-anchor="middle" x="601.5" y="-535.6" font-family="DejaVu Sans" font-size="8.00">birational torus law</text>
</g>
<!-- api_gate -->
<g id="node8" class="node">
<title>api_gate</title>
<path fill="#ecfdf5" stroke="#15803d" d="M557.4,-385.93C557.4,-385.93 459.6,-360.07 459.6,-360.07 453.8,-358.53 453.8,-355.47 459.6,-353.93 459.6,-353.93 557.4,-328.07 557.4,-328.07 563.2,-326.53 574.8,-326.53 580.6,-328.07 580.6,-328.07 678.4,-353.93 678.4,-353.93 684.2,-355.47 684.2,-358.53 678.4,-360.07 678.4,-360.07 580.6,-385.93 580.6,-385.93 574.8,-387.47 563.2,-387.47 557.4,-385.93"/>
<text text-anchor="middle" x="569" y="-359.8" font-family="DejaVu Sans" font-size="9.00">Input validation before</text>
<text text-anchor="middle" x="569" y="-349.8" font-family="DejaVu Sans" font-size="9.00">secret multiplication?</text>
</g>
<!-- parameter&#45;&gt;api_gate -->
<g id="edge5" class="edge">
<title>parameter&#45;&gt;api_gate</title>
<path fill="none" stroke="#7e22ce" stroke-width="1.6" d="M565.99,-449.84C566.52,-433.67 567.18,-413.56 567.74,-396.29"/>
<polygon fill="#7e22ce" stroke="#7e22ce" stroke-width="1.6" points="570.2,-396.16 567.98,-389.08 565.3,-396 570.2,-396.16"/>
<text text-anchor="middle" x="582" y="-422.6" font-family="DejaVu Sans" font-size="8.00">probe R</text>
</g>
<!-- reject -->
<g id="node9" class="node">
<title>reject</title>
<path fill="#dcfce7" stroke="#15803d" d="M632.5,-259C632.5,-259 451.5,-259 451.5,-259 445.5,-259 439.5,-253 439.5,-247 439.5,-247 439.5,-229 439.5,-229 439.5,-223 445.5,-217 451.5,-217 451.5,-217 632.5,-217 632.5,-217 638.5,-217 644.5,-223 644.5,-229 644.5,-229 644.5,-247 644.5,-247 644.5,-253 638.5,-259 632.5,-259"/>
<text text-anchor="middle" x="542" y="-245.8" font-family="DejaVu Sans" font-size="9.00">HIGH&#45;LEVEL CONTROL</text>
<text text-anchor="middle" x="542" y="-235.8" font-family="DejaVu Sans" font-size="9.00">ecdh_raw rejection predicate reproduced</text>
<text text-anchor="middle" x="542" y="-225.8" font-family="DejaVu Sans" font-size="9.00">[VALIDATED HOLDS]</text>
</g>
<!-- api_gate&#45;&gt;reject -->
<g id="edge6" class="edge">
<title>api_gate&#45;&gt;reject</title>
<path fill="none" stroke="#15803d" stroke-width="1.6" d="M562.26,-326.78C557.95,-308.13 552.42,-284.15 548.22,-265.96"/>
<polygon fill="#15803d" stroke="#15803d" stroke-width="1.6" points="550.59,-265.32 546.63,-259.05 545.81,-266.42 550.59,-265.32"/>
<text text-anchor="middle" x="584" y="-287.6" font-family="DejaVu Sans" font-size="8.00">validated path</text>
</g>
<!-- oracle -->
<g id="node10" class="node">
<title>oracle</title>
<path fill="#fee2e2" stroke="#b91c1c" d="M847,-264C847,-264 697,-264 697,-264 691,-264 685,-258 685,-252 685,-252 685,-224 685,-224 685,-218 691,-212 697,-212 697,-212 847,-212 847,-212 853,-212 859,-218 859,-224 859,-224 859,-252 859,-252 859,-258 853,-264 847,-264"/>
<text text-anchor="middle" x="772" y="-250.8" font-family="DejaVu Sans" font-size="9.00">UNCHECKED LOW&#45;LEVEL SURFACE</text>
<text text-anchor="middle" x="772" y="-240.8" font-family="DejaVu Sans" font-size="9.00">x&#45;only confirmation tags</text>
<text text-anchor="middle" x="772" y="-230.8" font-family="DejaVu Sans" font-size="9.00">72 probes; scalar recovered</text>
<text text-anchor="middle" x="772" y="-220.8" font-family="DejaVu Sans" font-size="9.00">[VALIDATED HOLDS]</text>
</g>
<!-- api_gate&#45;&gt;oracle -->
<g id="edge7" class="edge">
<title>api_gate&#45;&gt;oracle</title>
<path fill="none" stroke="#b91c1c" stroke-width="1.6" d="M606.23,-334.54C638.8,-315.77 686.37,-288.35 722.2,-267.7"/>
<polygon fill="#b91c1c" stroke="#b91c1c" stroke-width="1.6" points="723.46,-269.81 728.3,-264.19 721.01,-265.56 723.46,-269.81"/>
<text text-anchor="middle" x="721.5" y="-287.6" font-family="DejaVu Sans" font-size="8.00">unchecked path</text>
</g>
<!-- residual -->
<g id="node11" class="node">
<title>residual</title>
<path fill="#fee2e2" stroke="#b91c1c" d="M847,-161C847,-161 669,-161 669,-161 663,-161 657,-155 657,-149 657,-149 657,-121 657,-121 657,-115 663,-109 669,-109 669,-109 847,-109 847,-109 853,-109 859,-115 859,-121 859,-121 859,-149 859,-149 859,-155 853,-161 847,-161"/>
<text text-anchor="middle" x="758" y="-147.8" font-family="DejaVu Sans" font-size="9.00">Legitimate P&#45;192 Q=[d]G</text>
<text text-anchor="middle" x="758" y="-137.8" font-family="DejaVu Sans" font-size="9.00">qmax residual resolved by interval BSGS</text>
<text text-anchor="middle" x="758" y="-127.8" font-family="DejaVu Sans" font-size="9.00">exact final replay reproduced</text>
<text text-anchor="middle" x="758" y="-117.8" font-family="DejaVu Sans" font-size="9.00">[VALIDATED HOLDS]</text>
</g>
<!-- oracle&#45;&gt;residual -->
<g id="edge8" class="edge">
<title>oracle&#45;&gt;residual</title>
<path fill="none" stroke="#b91c1c" stroke-width="1.6" d="M768.5,-211.77C766.68,-198.64 764.44,-182.43 762.49,-168.38"/>
<polygon fill="#b91c1c" stroke="#b91c1c" stroke-width="1.6" points="764.89,-167.85 761.5,-161.25 760.04,-168.52 764.89,-167.85"/>
<text text-anchor="middle" x="814.5" y="-184.6" font-family="DejaVu Sans" font-size="8.00">coherent ± class mod M</text>
</g>
<!-- impl_verdict -->
<g id="node12" class="node">
<title>impl_verdict</title>
<path fill="#fef3c7" stroke="#b45309" d="M856,-58C856,-58 612,-58 612,-58 606,-58 600,-52 600,-46 600,-46 600,-28 600,-28 600,-22 606,-16 612,-16 612,-16 856,-16 856,-16 862,-16 868,-22 868,-28 868,-28 868,-46 868,-46 868,-52 862,-58 856,-58"/>
<text text-anchor="middle" x="734" y="-44.8" font-family="DejaVu Sans" font-size="9.00">Scoped verdict:</text>
<text text-anchor="middle" x="734" y="-34.8" font-family="DejaVu Sans" font-size="9.00">IMPLEMENTATION_WEAK</text>
<text text-anchor="middle" x="734" y="-24.8" font-family="DejaVu Sans" font-size="9.00">fixed synthetic interface; never &#39;weak isogenous curve&#39;</text>
</g>
<!-- residual&#45;&gt;impl_verdict -->
<g id="edge9" class="edge">
<title>residual&#45;&gt;impl_verdict</title>
<path fill="none" stroke="#b45309" stroke-width="1.6" d="M751.69,-108.78C748.34,-95.34 744.2,-78.81 740.77,-65.1"/>
<polygon fill="#b45309" stroke="#b45309" stroke-width="1.6" points="743.13,-64.42 739.05,-58.22 738.38,-65.61 743.13,-64.42"/>
<text text-anchor="middle" x="802" y="-81.6" font-family="DejaVu Sans" font-size="8.00">only after replay + controls</text>
</g>
<!-- legend -->
<g id="node13" class="node">
<title>legend</title>
<polygon fill="#ffffff" stroke="#94a3b8" points="908.5,-773 643.5,-773 643.5,-701 914.5,-701 914.5,-767 908.5,-773"/>
<polyline fill="none" stroke="#94a3b8" points="908.5,-773 908.5,-767 "/>
<polyline fill="none" stroke="#94a3b8" points="914.5,-767 908.5,-767 "/>
<text text-anchor="middle" x="779" y="-759.8" font-family="DejaVu Sans" font-size="9.00">Legend</text>
<text text-anchor="middle" x="779" y="-749.8" font-family="DejaVu Sans" font-size="9.00">blue = valid elliptic/CM evidence flow</text>
<text text-anchor="middle" x="779" y="-739.8" font-family="DejaVu Sans" font-size="9.00">purple = exact singular&#45;torus algebra</text>
<text text-anchor="middle" x="779" y="-729.8" font-family="DejaVu Sans" font-size="9.00">red dashed = forbidden equivalence inference</text>
<text text-anchor="middle" x="779" y="-719.8" font-family="DejaVu Sans" font-size="9.00">green = validation/replay gate</text>
<text text-anchor="middle" x="779" y="-709.8" font-family="DejaVu Sans" font-size="9.00">VALIDATED SUBCLAIM does not override overall BREAKS</text>
</g>
</g>
</svg>
